<svg width="116" height="115" viewBox="0 0 116 115" fill="none" xmlns="http://www.w3.org/2000/svg">
<g filter="url(#filter0_dd_11_88)">
<g filter="url(#filter1_d_11_88)">
<path d="M91.3334 49.5C91.3334 67.6794 76.4095 82.4167 58 82.4167C39.5905 82.4167 24.6667 67.6794 24.6667 49.5C24.6667 31.3206 39.5905 16.5833 58 16.5833C76.4095 16.5833 91.3334 31.3206 91.3334 49.5Z" fill="url(#paint0_linear_11_88)"/>
</g>
<path fill-rule="evenodd" clip-rule="evenodd" d="M58 82.4167C76.4095 82.4167 91.3333 67.6794 91.3333 49.5C91.3333 31.3206 76.4095 16.5833 58 16.5833C39.5905 16.5833 24.6667 31.3206 24.6667 49.5C24.6667 67.6794 39.5905 82.4167 58 82.4167ZM58 89C80.0914 89 98 71.3152 98 49.5C98 27.6848 80.0914 10 58 10C35.9086 10 18 27.6848 18 49.5C18 71.3152 35.9086 89 58 89Z" fill="#272121"/>
<path fill-rule="evenodd" clip-rule="evenodd" d="M30.8889 41.8194C28.689 41.8194 26.7823 42.1 25.1668 42.5122L24.6109 40.3875C26.402 39.9305 28.4953 39.625 30.8889 39.625C35.5253 39.625 39.0277 40.771 41.3858 41.9353C42.563 42.5165 43.4528 43.1012 44.0555 43.5476C44.357 43.7708 44.587 43.9598 44.7455 44.0968C44.8248 44.1653 44.8863 44.2209 44.93 44.2614C44.9519 44.2816 44.9693 44.298 44.9823 44.3105L44.9984 44.326L45.004 44.3314L45.0049 44.3324L45.0056 44.333L45.0061 44.3335L45.0065 44.3339L45.0083 44.3356C45.0127 44.3398 45.0213 44.348 45.0342 44.3599C45.06 44.3838 45.1026 44.4225 45.1622 44.474C45.2814 44.5769 45.4681 44.7309 45.7222 44.9191C46.2306 45.2956 47.0074 45.8082 48.0524 46.3242C50.1388 47.3543 53.303 48.4028 57.5555 48.4028C61.808 48.4028 64.9723 47.3543 67.0586 46.3242C68.1036 45.8082 68.8805 45.2956 69.3889 44.9191C69.643 44.7309 69.8297 44.5769 69.9489 44.474C70.0084 44.4225 70.0511 44.3838 70.0768 44.3599C70.086 44.3515 70.093 44.3449 70.0978 44.3403L70.1027 44.3356L70.1039 44.3346C70.1036 44.3349 70.1032 44.3353 70.8889 45.1111C71.6745 45.887 71.6741 45.8874 71.6737 45.8878L71.6728 45.8887L71.6716 45.8899L71.6706 45.8908L71.6651 45.8962L71.6489 45.9118C71.636 45.9242 71.6186 45.9406 71.5967 45.9609C71.553 46.0013 71.4915 46.0569 71.4122 46.1254C71.2536 46.2625 71.0236 46.4514 70.7222 46.6747C70.1195 47.1211 69.2297 47.7057 68.0524 48.2869C65.6943 49.4513 62.1919 50.5972 57.5555 50.5972C52.9191 50.5972 49.4167 49.4513 47.0586 48.2869C45.8814 47.7057 44.9916 47.1211 44.3889 46.6747C44.0874 46.4514 43.8574 46.2625 43.6989 46.1254C43.6196 46.0569 43.5581 46.0013 43.5143 45.9609C43.4925 45.9406 43.4751 45.9242 43.4621 45.9118L43.446 45.8962L43.4404 45.8908L43.4395 45.8899L43.4388 45.8892L43.4383 45.8887L43.4379 45.8883L43.4361 45.8866C43.4317 45.8824 43.423 45.8742 43.4102 45.8623C43.3844 45.8385 43.3418 45.7998 43.2822 45.7483C43.163 45.6453 42.9763 45.4913 42.7222 45.3031C42.2138 44.9266 41.4369 44.414 40.392 43.8981C38.3056 42.8679 35.1413 41.8194 30.8889 41.8194ZM70.8889 45.1111C71.6745 45.887 71.6741 45.8874 71.6737 45.8878L71.6745 45.887L71.675 45.8866C71.6794 45.8824 71.688 45.8742 71.7009 45.8623C71.7266 45.8385 71.7693 45.7998 71.8289 45.7483C71.9481 45.6453 72.1348 45.4913 72.3889 45.3031C72.8972 44.9266 73.6741 44.414 74.7191 43.8981C76.8054 42.8679 79.9697 41.8194 84.2222 41.8194C86.8167 41.8194 89.0039 42.2096 90.7871 42.7463L91.435 40.6472C89.4514 40.0502 87.046 39.625 84.2222 39.625C79.5858 39.625 76.0834 40.771 73.7253 41.9353C72.5481 42.5165 71.6583 43.1012 71.0555 43.5476C70.7541 43.7708 70.5241 43.9598 70.3655 44.0968C70.2862 44.1653 70.2247 44.2209 70.181 44.2614C70.1592 44.2816 70.1417 44.298 70.1288 44.3105L70.1127 44.326L70.1071 44.3314L70.1061 44.3324L70.1049 44.3335L70.1039 44.3346C70.1036 44.3349 70.1032 44.3353 70.8889 45.1111Z" fill="#272121"/>
<path fill-rule="evenodd" clip-rule="evenodd" d="M30.8889 50.5972C28.087 50.5972 25.7597 51.0523 23.903 51.6558L23.2081 49.5714C25.2771 48.8989 27.8387 48.4028 30.8889 48.4028C35.5253 48.4028 39.0277 49.5488 41.3858 50.7131C42.563 51.2943 43.4528 51.879 44.0555 52.3254C44.357 52.5486 44.587 52.7375 44.7456 52.8746C44.8249 52.9431 44.8864 52.9987 44.9301 53.0391C44.9519 53.0594 44.9693 53.0758 44.9823 53.0882L44.9984 53.1038L45.004 53.1092L45.0049 53.1101L45.0056 53.1108L45.0061 53.1113L45.0066 53.1117L45.0083 53.1134C45.0127 53.1176 45.0214 53.1258 45.0342 53.1377C45.06 53.1616 45.1026 53.2003 45.1622 53.2517C45.2814 53.3547 45.4681 53.5087 45.7222 53.6969C46.2306 54.0734 47.0075 54.586 48.0525 55.102C50.1388 56.1321 53.3031 57.1806 57.5555 57.1806C61.808 57.1806 64.9723 56.1321 67.0586 55.102C68.1036 54.586 68.8805 54.0734 69.3889 53.6969C69.643 53.5087 69.8297 53.3547 69.9489 53.2517C70.0085 53.2003 70.0511 53.1616 70.0769 53.1377C70.0897 53.1258 70.0984 53.1176 70.1028 53.1134L70.1039 53.1123C70.1036 53.1127 70.1032 53.113 70.8889 53.8889C71.6746 54.6648 71.6742 54.6651 71.6737 54.6656L71.6728 54.6665L71.6716 54.6677L71.6707 54.6686L71.6651 54.674L71.649 54.6896C71.636 54.702 71.6186 54.7184 71.5967 54.7387C71.553 54.7791 71.4915 54.8347 71.4122 54.9032C71.2536 55.0403 71.0237 55.2292 70.7222 55.4524C70.1195 55.8988 69.2297 56.4835 68.0525 57.0647C65.6944 58.229 62.192 59.375 57.5555 59.375C52.9191 59.375 49.4167 58.229 47.0586 57.0647C45.8814 56.4835 44.9916 55.8988 44.3889 55.4524C44.0874 55.2292 43.8575 55.0403 43.6989 54.9032C43.6196 54.8347 43.5581 54.7791 43.5144 54.7387C43.4925 54.7184 43.4751 54.702 43.4621 54.6896L43.446 54.674L43.4404 54.6686L43.4395 54.6677L43.4388 54.667L43.4383 54.6665L43.4379 54.6661L43.4361 54.6644C43.4317 54.6602 43.4231 54.652 43.4102 54.6401C43.3845 54.6162 43.3418 54.5775 43.2822 54.5261C43.163 54.4231 42.9763 54.2691 42.7222 54.0809C42.2138 53.7044 41.437 53.1918 40.392 52.6758C38.3056 51.6457 35.1414 50.5972 30.8889 50.5972ZM70.8889 53.8889C71.6746 54.6648 71.6742 54.6651 71.6737 54.6656L71.6746 54.6648L71.675 54.6644C71.6794 54.6602 71.688 54.652 71.7009 54.6401C71.7266 54.6162 71.7693 54.5775 71.8289 54.5261C71.9481 54.4231 72.1348 54.2691 72.3889 54.0809C72.8973 53.7044 73.6741 53.1918 74.7191 52.6758C76.8055 51.6457 79.9697 50.5972 84.2222 50.5972C87.5789 50.5972 90.2557 51.2504 92.2589 52.0307L93.0744 49.9893C90.8311 49.1155 87.8784 48.4028 84.2222 48.4028C79.5858 48.4028 76.0834 49.5488 73.7253 50.7131C72.5481 51.2943 71.6583 51.879 71.0555 52.3254C70.7541 52.5486 70.5241 52.7375 70.3655 52.8746C70.2862 52.9431 70.2247 52.9987 70.181 53.0391C70.1592 53.0594 70.1418 53.0758 70.1288 53.0882L70.1127 53.1038L70.1071 53.1092L70.1062 53.1101L70.1049 53.1113L70.1039 53.1123C70.1036 53.1127 70.1032 53.113 70.8889 53.8889Z" fill="#272121"/>
<path fill-rule="evenodd" clip-rule="evenodd" d="M31.3333 59.375C29.3218 59.375 27.5557 59.6095 26.0332 59.9647L25.5223 57.829C27.2076 57.4359 29.1451 57.1806 31.3333 57.1806C35.9698 57.1806 39.4722 58.3265 41.8303 59.4908C43.0075 60.0721 43.8973 60.6567 44.5 61.1031C44.8015 61.3264 45.0314 61.5153 45.19 61.6523C45.2693 61.7209 45.3308 61.7765 45.3745 61.8169C45.3964 61.8371 45.4138 61.8536 45.4268 61.866L45.4429 61.8815L45.4485 61.887L45.4494 61.8879L45.4501 61.8886L45.4506 61.8891L45.451 61.8895L45.4528 61.8912C45.4572 61.8954 45.4658 61.9036 45.4787 61.9155C45.5044 61.9393 45.5471 61.978 45.6067 62.0295C45.7259 62.1325 45.9126 62.2865 46.1667 62.4747C46.6751 62.8512 47.4519 63.3638 48.4969 63.8797C50.5833 64.9099 53.7475 65.9583 58 65.9583C62.2525 65.9583 65.4168 64.9099 67.5031 63.8797C68.5481 63.3638 69.325 62.8512 69.8333 62.4747C70.0875 62.2865 70.2742 62.1325 70.3933 62.0295C70.4529 61.978 70.4956 61.9393 70.5213 61.9155C70.5342 61.9036 70.5428 61.8954 70.5472 61.8912L70.5484 61.8901C70.548 61.8905 70.5477 61.8908 71.3333 62.6667C72.119 63.4425 72.1186 63.4429 72.1182 63.4433L72.1173 63.4442L72.1161 63.4454L72.1151 63.4464L72.1096 63.4518L72.0934 63.4673C72.0805 63.4797 72.0631 63.4962 72.0412 63.5164C71.9975 63.5569 71.936 63.6125 71.8567 63.681C71.6981 63.818 71.4681 64.007 71.1667 64.2302C70.5639 64.6766 69.6741 65.2612 68.4969 65.8425C66.1388 67.0068 62.6364 68.1528 58 68.1528C53.3636 68.1528 49.8612 67.0068 47.5031 65.8425C46.3259 65.2612 45.4361 64.6766 44.8333 64.2302C44.5319 64.007 44.3019 63.818 44.1433 63.681C44.064 63.6125 44.0025 63.5569 43.9588 63.5164C43.937 63.4962 43.9196 63.4797 43.9066 63.4673L43.8905 63.4518L43.8849 63.4464L43.884 63.4454L43.8833 63.4448L43.8827 63.4442L43.8823 63.4438L43.8806 63.4421C43.8762 63.4379 43.8675 63.4298 43.8547 63.4178C43.8289 63.394 43.7863 63.3553 43.7267 63.3038C43.6075 63.2008 43.4208 63.0469 43.1667 62.8587C42.6583 62.4822 41.8814 61.9696 40.8364 61.4536C38.7501 60.4235 35.5858 59.375 31.3333 59.375ZM71.3333 62.6667C72.119 63.4425 72.1186 63.4429 72.1182 63.4433L72.119 63.4425L72.1195 63.4421C72.1239 63.4379 72.1325 63.4298 72.1454 63.4178C72.1711 63.394 72.2138 63.3553 72.2734 63.3038C72.3925 63.2008 72.5792 63.0469 72.8333 62.8587C73.3417 62.4822 74.1186 61.9696 75.1636 61.4536C77.2499 60.4235 80.4142 59.375 84.6667 59.375C86.9629 59.375 88.9397 59.6806 90.5996 60.1227L91.1782 58.0039C89.3365 57.5134 87.1652 57.1806 84.6667 57.1806C80.0303 57.1806 76.5279 58.3265 74.1698 59.4908C72.9925 60.0721 72.1027 60.6567 71.5 61.1031C71.1986 61.3264 70.9686 61.5153 70.81 61.6523C70.7307 61.7209 70.6692 61.7765 70.6255 61.8169C70.6036 61.8371 70.5862 61.8536 70.5733 61.866L70.5571 61.8815L70.5516 61.887L70.5506 61.8879L70.5494 61.8891L70.5484 61.8901C70.548 61.8905 70.5477 61.8908 71.3333 62.6667Z" fill="#272121"/>
<path fill-rule="evenodd" clip-rule="evenodd" d="M31.3333 68.1528C30.513 68.1528 29.7338 68.1918 28.9954 68.262L28.7824 66.0777C29.5912 66.0007 30.4416 65.9583 31.3333 65.9583C35.9697 65.9583 39.4721 67.1043 41.8302 68.2686C43.0075 68.8499 43.8973 69.4345 44.5 69.8809C44.8014 70.1042 45.0314 70.2931 45.19 70.4301C45.2693 70.4986 45.3308 70.5542 45.3745 70.5947C45.3964 70.6149 45.4138 70.6314 45.4268 70.6438L45.4429 70.6593L45.4484 70.6648L45.4494 70.6657L45.4501 70.6663L45.4506 70.6669L45.451 70.6673L45.4528 70.669C45.4572 70.6732 45.4658 70.6814 45.4787 70.6933C45.5044 70.7171 45.5471 70.7558 45.6067 70.8073C45.7259 70.9103 45.9126 71.0642 46.1667 71.2524C46.675 71.6289 47.4519 72.1415 48.4969 72.6575C50.5833 73.6876 53.7475 74.7361 58 74.7361C62.2525 74.7361 65.4168 73.6876 67.5031 72.6575C68.5481 72.1415 69.325 71.6289 69.8333 71.2524C70.0874 71.0642 70.2741 70.9103 70.3933 70.8073C70.4529 70.7558 70.4956 70.7171 70.5213 70.6933C70.5342 70.6814 70.5428 70.6732 70.5472 70.669L70.5484 70.6679C70.548 70.6682 70.5477 70.6686 71.3333 71.4444C72.119 72.2203 72.1186 72.2207 72.1182 72.2211L72.1173 72.222L72.1161 72.2232L72.1151 72.2241L72.1095 72.2296L72.0934 72.2451C72.0856 72.2526 72.0761 72.2616 72.0651 72.2719C72.0578 72.2788 72.0498 72.2862 72.0412 72.2942C71.9975 72.3347 71.936 72.3902 71.8567 72.4588C71.6981 72.5958 71.4681 72.7847 71.1667 73.008C70.5639 73.4544 69.6741 74.039 68.4969 74.6203C66.1388 75.7846 62.6364 76.9306 58 76.9306C53.3636 76.9306 49.8612 75.7846 47.5031 74.6203C46.3259 74.039 45.4361 73.4544 44.8333 73.008C44.5319 72.7847 44.3019 72.5958 44.1433 72.4588C44.064 72.3902 44.0025 72.3347 43.9588 72.2942C43.937 72.274 43.9196 72.2575 43.9066 72.2451L43.8905 72.2296L43.8849 72.2241L43.884 72.2232L43.8833 72.2225L43.8827 72.222L43.8823 72.2216L43.8805 72.2199C43.8761 72.2157 43.8675 72.2075 43.8546 72.1956C43.8289 72.1718 43.7862 72.1331 43.7267 72.0816C43.6075 71.9786 43.4208 71.8247 43.1667 71.6365C42.6583 71.2599 41.8814 70.7473 40.8364 70.2314C38.7501 69.2012 35.5858 68.1528 31.3333 68.1528ZM71.3333 71.4444C72.119 72.2203 72.1186 72.2207 72.1182 72.2211L72.119 72.2203L72.1195 72.2199C72.1239 72.2157 72.1325 72.2075 72.1454 72.1956C72.1711 72.1718 72.2138 72.1331 72.2733 72.0816C72.3925 71.9786 72.5792 71.8247 72.8333 71.6365C73.3417 71.2599 74.1186 70.7473 75.1636 70.2314C77.2499 69.2012 80.4142 68.1528 84.6667 68.1528C85.487 68.1528 86.2662 68.1918 87.0046 68.262L87.2176 66.0777C86.4088 66.0007 85.5584 65.9583 84.6667 65.9583C80.0303 65.9583 76.5279 67.1043 74.1698 68.2686C72.9925 68.8499 72.1027 69.4345 71.5 69.8809C71.1986 70.1042 70.9686 70.2931 70.81 70.4301C70.7307 70.4986 70.6692 70.5542 70.6255 70.5947C70.6036 70.6149 70.5862 70.6314 70.5733 70.6438L70.5571 70.6593L70.5516 70.6648L70.5506 70.6657L70.5494 70.6669L70.5484 70.6679C70.548 70.6682 70.5477 70.6686 71.3333 71.4444Z" fill="#272121"/>
<path fill-rule="evenodd" clip-rule="evenodd" d="M58 84.6111C77.6368 84.6111 93.5556 68.8913 93.5556 49.5C93.5556 30.1087 77.6368 14.3889 58 14.3889C38.3632 14.3889 22.4444 30.1087 22.4444 49.5C22.4444 68.8913 38.3632 84.6111 58 84.6111ZM58 89C80.0914 89 98 71.3152 98 49.5C98 27.6848 80.0914 10 58 10C35.9086 10 18 27.6848 18 49.5C18 71.3152 35.9086 89 58 89Z" fill="#D9D9D9"/>
</g>
<path d="M64.2222 28.3737C64.2222 27.7313 64.8207 27.2565 65.4463 27.4026L77.2296 30.1552C77.6808 30.2606 78 30.6629 78 31.1263C78 31.7687 77.4015 32.2435 76.7759 32.0974L64.9926 29.3448C64.5414 29.2394 64.2222 28.8371 64.2222 28.3737Z" fill="#272121"/>
<path d="M63.3333 22.6201C63.3333 21.9977 63.907 21.5336 64.5157 21.6636L77.1787 24.3673C77.6577 24.4695 78 24.8927 78 25.3825C78 26.047 77.3843 26.5403 76.7358 26.3956L64.0983 23.5747C63.6513 23.4749 63.3333 23.0782 63.3333 22.6201Z" fill="#272121"/>
<path d="M63.3333 23.2521C63.3333 22.4158 64.2223 21.8793 64.9622 22.269C65.3271 22.4612 65.5556 22.8397 65.5556 23.2521V38.7333C65.5556 39.347 65.0581 39.8444 64.4445 39.8444C63.8308 39.8444 63.3333 39.347 63.3333 38.7333V23.2521Z" fill="#272121"/>
<rect x="75.8423" y="24.9195" width="2.15771" height="12.8636" rx="1.07885" fill="#272121"/>
<mask id="path-12-inside-1_11_88" fill="white">
<ellipse cx="62.2222" cy="39.8444" rx="3.33333" ry="2.19444"/>
</mask>
<ellipse cx="62.2222" cy="39.8444" rx="3.33333" ry="2.19444" fill="#424C5F"/>
<path d="M62.5556 39.8444C62.5556 39.5083 62.6642 39.2412 62.7696 39.077C62.8666 38.9261 62.9472 38.8788 62.9296 38.8904C62.8821 38.9217 62.6406 39.0389 62.2222 39.0389V45.0389C63.6448 45.0389 65.07 44.6648 66.2289 43.9019C67.3632 43.1551 68.5556 41.7833 68.5556 39.8444H62.5556ZM62.2222 39.0389C61.8039 39.0389 61.5624 38.9217 61.5148 38.8904C61.4973 38.8788 61.5779 38.9261 61.6748 39.077C61.7803 39.2412 61.8889 39.5083 61.8889 39.8444H55.8889C55.8889 41.7833 57.0813 43.1551 58.2156 43.9019C59.3745 44.6648 60.7996 45.0389 62.2222 45.0389V39.0389ZM61.8889 39.8444C61.8889 40.1806 61.7803 40.4477 61.6748 40.6119C61.5779 40.7627 61.4973 40.81 61.5148 40.7985C61.5624 40.7672 61.8039 40.65 62.2222 40.65V34.65C60.7996 34.65 59.3745 35.0241 58.2156 35.787C57.0813 36.5338 55.8889 37.9056 55.8889 39.8444H61.8889ZM62.2222 40.65C62.6406 40.65 62.8821 40.7672 62.9296 40.7985C62.9472 40.81 62.8666 40.7627 62.7696 40.6119C62.6642 40.4477 62.5556 40.1806 62.5556 39.8444H68.5556C68.5556 37.9056 67.3632 36.5338 66.2289 35.787C65.07 35.0241 63.6448 34.65 62.2222 34.65V40.65Z" fill="#272121" mask="url(#path-12-inside-1_11_88)"/>
<mask id="path-14-inside-2_11_88" fill="white">
<ellipse cx="74.7634" cy="37.6369" rx="3.23656" ry="2.19265"/>
</mask>
<ellipse cx="74.7634" cy="37.6369" rx="3.23656" ry="2.19265" fill="#424C5F"/>
<path d="M75 37.6369C75 37.3199 75.0994 37.0641 75.2009 36.9016C75.2488 36.8248 75.2936 36.7739 75.323 36.7444C75.3379 36.7295 75.3497 36.7192 75.3575 36.7128C75.3652 36.7065 75.3694 36.7036 75.3694 36.7036C75.3694 36.7036 75.3658 36.706 75.3582 36.7103C75.3506 36.7146 75.3394 36.7204 75.3245 36.7272C75.2944 36.741 75.252 36.7575 75.1969 36.7733C75.0853 36.8053 74.938 36.8295 74.7634 36.8295V42.8295C76.1767 42.8295 77.5897 42.4467 78.7347 41.671C79.8629 40.9067 81 39.535 81 37.6369H75ZM74.7634 36.8295C74.5888 36.8295 74.4416 36.8053 74.33 36.7733C74.2749 36.7575 74.2325 36.741 74.2024 36.7272C74.1875 36.7204 74.1763 36.7146 74.1687 36.7103C74.161 36.706 74.1574 36.7036 74.1575 36.7036C74.1575 36.7036 74.1617 36.7065 74.1694 36.7128C74.1772 36.7192 74.189 36.7295 74.2039 36.7444C74.2333 36.7739 74.2781 36.8248 74.326 36.9016C74.4275 37.0641 74.5269 37.3199 74.5269 37.6369H68.5269C68.5269 39.535 69.664 40.9067 70.7922 41.671C71.9372 42.4467 73.3502 42.8295 74.7634 42.8295V36.8295ZM74.5269 37.6369C74.5269 37.9538 74.4275 38.2096 74.326 38.3722C74.2781 38.4489 74.2333 38.4998 74.2039 38.5293C74.189 38.5443 74.1772 38.5546 74.1694 38.5609C74.1617 38.5673 74.1575 38.5701 74.1575 38.5701C74.1574 38.5701 74.161 38.5677 74.1687 38.5634C74.1763 38.5592 74.1875 38.5534 74.2024 38.5465C74.2325 38.5328 74.2749 38.5162 74.33 38.5005C74.4416 38.4685 74.5888 38.4442 74.7634 38.4442V32.4442C73.3502 32.4442 71.9372 32.827 70.7922 33.6027C69.664 34.3671 68.5269 35.7387 68.5269 37.6369H74.5269ZM74.7634 38.4442C74.938 38.4442 75.0853 38.4685 75.1969 38.5005C75.252 38.5162 75.2944 38.5328 75.3245 38.5465C75.3394 38.5534 75.3506 38.5592 75.3582 38.5634C75.3658 38.5677 75.3694 38.5701 75.3694 38.5701C75.3694 38.5701 75.3652 38.5673 75.3575 38.5609C75.3497 38.5546 75.3379 38.5443 75.323 38.5293C75.2936 38.4998 75.2488 38.4489 75.2009 38.3722C75.0994 38.2096 75 37.9538 75 37.6369H81C81 35.7387 79.8629 34.3671 78.7347 33.6027C77.5897 32.827 76.1767 32.4442 74.7634 32.4442V38.4442Z" fill="#272121" mask="url(#path-14-inside-2_11_88)"/>
<g filter="url(#filter2_dd_11_88)">
<ellipse cx="49.5556" cy="39.4056" rx="1.33333" ry="1.31667" fill="#272121"/>
</g>
<path fill-rule="evenodd" clip-rule="evenodd" d="M51.4791 48.0565C51.4791 48.0565 51.4788 48.0562 50.8626 48.4385C50.2464 48.8208 50.246 48.8204 50.246 48.8204L50.2456 48.82L50.2446 48.8191L50.2422 48.8167L50.2357 48.8104C50.2306 48.8053 50.224 48.7987 50.216 48.7905C50.2 48.7741 50.1784 48.7513 50.1521 48.7222C50.0996 48.6641 50.0284 48.5806 49.9459 48.4717C49.7809 48.254 49.5704 47.9346 49.3741 47.5138C48.9811 46.6713 48.6458 45.424 48.8449 43.7788L50.3281 43.6922C50.1491 45.1714 50.4519 46.2756 50.7914 47.0035C50.9614 47.3679 51.1408 47.6384 51.2742 47.8143C51.3409 47.9023 51.3959 47.9665 51.4324 48.0069C51.4506 48.0271 51.4642 48.0413 51.4722 48.0495L51.48 48.0574L51.4791 48.0565Z" fill="#272121"/>
<path fill-rule="evenodd" clip-rule="evenodd" d="M41.219 42.5469C41.219 42.5469 41.2186 42.546 40.4567 43.034C39.6947 43.522 39.6944 43.521 39.6944 43.521L39.694 43.5199L39.6931 43.5176L39.6908 43.5117L39.6847 43.4954C39.68 43.4826 39.6738 43.4657 39.6664 43.445C39.6515 43.4035 39.6316 43.3463 39.6076 43.2738C39.5597 43.1289 39.4957 42.9228 39.4237 42.6591C39.2798 42.132 39.1041 41.3737 38.9633 40.4138C38.6814 38.4919 38.5402 35.7659 39.0721 32.4802L40.7496 33.0192C40.2713 35.9733 40.403 38.3893 40.6465 40.0497C40.7685 40.881 40.9186 41.5237 41.0349 41.9499C41.0931 42.163 41.1427 42.3216 41.1759 42.4222C41.1926 42.4725 41.2051 42.5083 41.2125 42.5291L41.2198 42.549L41.219 42.5469Z" fill="url(#paint1_linear_11_88)"/>
<path d="M45.3333 38.7884V45.55H43.7778V38.0889L45.3333 38.7884Z" fill="#272121"/>
<g filter="url(#filter3_d_11_88)">
<ellipse cx="44.8889" cy="34.5778" rx="1.55556" ry="1.31667" fill="#272121"/>
</g>
<g filter="url(#filter4_d_11_88)">
<ellipse cx="41.1111" cy="28.8722" rx="1.77778" ry="1.75556" fill="#272121"/>
</g>
<g filter="url(#filter5_d_11_88)">
<ellipse cx="35.3333" cy="32.8222" rx="1.33333" ry="1.31667" fill="#272121"/>
</g>
<g filter="url(#filter6_d_11_88)">
<ellipse cx="32.6667" cy="36.5528" rx="1.33333" ry="1.09722" fill="#272121"/>
</g>
<path d="M32.2222 38.0889H33.1111V40.0639H32.2222V38.0889Z" fill="url(#paint2_linear_11_88)"/>
<defs>
<filter id="filter0_dd_11_88" x="0" y="0" width="116" height="115" filterUnits="userSpaceOnUse" color-interpolation-filters="sRGB">
<feFlood flood-opacity="0" result="BackgroundImageFix"/>
<feColorMatrix in="SourceAlpha" type="matrix" values="0 0 0 0 0 0 0 0 0 0 0 0 0 0 0 0 0 0 127 0" result="hardAlpha"/>
<feOffset dy="4"/>
<feGaussianBlur stdDeviation="2"/>
<feColorMatrix type="matrix" values="0 0 0 0 0 0 0 0 0 0 0 0 0 0 0 0 0 0 0.3 0"/>
<feBlend mode="normal" in2="BackgroundImageFix" result="effect1_dropShadow_11_88"/>
<feColorMatrix in="SourceAlpha" type="matrix" values="0 0 0 0 0 0 0 0 0 0 0 0 0 0 0 0 0 0 127 0" result="hardAlpha"/>
<feMorphology radius="6" operator="dilate" in="SourceAlpha" result="effect2_dropShadow_11_88"/>
<feOffset dy="8"/>
<feGaussianBlur stdDeviation="6"/>
<feColorMatrix type="matrix" values="0 0 0 0 0 0 0 0 0 0 0 0 0 0 0 0 0 0 0.15 0"/>
<feBlend mode="normal" in2="effect1_dropShadow_11_88" result="effect2_dropShadow_11_88"/>
<feBlend mode="normal" in="SourceGraphic" in2="effect2_dropShadow_11_88" result="shape"/>
</filter>
<filter id="filter1_d_11_88" x="20.6667" y="16.5833" width="74.6667" height="89.8333" filterUnits="userSpaceOnUse" color-interpolation-filters="sRGB">
<feFlood flood-opacity="0" result="BackgroundImageFix"/>
<feColorMatrix in="SourceAlpha" type="matrix" values="0 0 0 0 0 0 0 0 0 0 0 0 0 0 0 0 0 0 127 0" result="hardAlpha"/>
<feOffset dy="20"/>
<feGaussianBlur stdDeviation="2"/>
<feComposite in2="hardAlpha" operator="out"/>
<feColorMatrix type="matrix" values="0 0 0 0 0 0 0 0 0 0 0 0 0 0 0 0 0 0 0.25 0"/>
<feBlend mode="normal" in2="BackgroundImageFix" result="effect1_dropShadow_11_88"/>
<feBlend mode="normal" in="SourceGraphic" in2="effect1_dropShadow_11_88" result="shape"/>
</filter>
<filter id="filter2_dd_11_88" x="30.2222" y="28.0889" width="38.6667" height="38.6333" filterUnits="userSpaceOnUse" color-interpolation-filters="sRGB">
<feFlood flood-opacity="0" result="BackgroundImageFix"/>
<feColorMatrix in="SourceAlpha" type="matrix" values="0 0 0 0 0 0 0 0 0 0 0 0 0 0 0 0 0 0 127 0" result="hardAlpha"/>
<feOffset dy="4"/>
<feGaussianBlur stdDeviation="2"/>
<feColorMatrix type="matrix" values="0 0 0 0 0 0 0 0 0 0 0 0 0 0 0 0 0 0 0.3 0"/>
<feBlend mode="normal" in2="BackgroundImageFix" result="effect1_dropShadow_11_88"/>
<feColorMatrix in="SourceAlpha" type="matrix" values="0 0 0 0 0 0 0 0 0 0 0 0 0 0 0 0 0 0 127 0" result="hardAlpha"/>
<feMorphology radius="6" operator="dilate" in="SourceAlpha" result="effect2_dropShadow_11_88"/>
<feOffset dy="8"/>
<feGaussianBlur stdDeviation="6"/>
<feColorMatrix type="matrix" values="0 0 0 0 0 0 0 0 0 0 0 0 0 0 0 0 0 0 0.15 0"/>
<feBlend mode="normal" in2="effect1_dropShadow_11_88" result="effect2_dropShadow_11_88"/>
<feBlend mode="normal" in="SourceGraphic" in2="effect2_dropShadow_11_88" result="shape"/>
</filter>
<filter id="filter3_d_11_88" x="39.3333" y="33.2611" width="11.1111" height="10.6333" filterUnits="userSpaceOnUse" color-interpolation-filters="sRGB">
<feFlood flood-opacity="0" result="BackgroundImageFix"/>
<feColorMatrix in="SourceAlpha" type="matrix" values="0 0 0 0 0 0 0 0 0 0 0 0 0 0 0 0 0 0 127 0" result="hardAlpha"/>
<feOffset dy="4"/>
<feGaussianBlur stdDeviation="2"/>
<feComposite in2="hardAlpha" operator="out"/>
<feColorMatrix type="matrix" values="0 0 0 0 0 0 0 0 0 0 0 0 0 0 0 0 0 0 0.25 0"/>
<feBlend mode="normal" in2="BackgroundImageFix" result="effect1_dropShadow_11_88"/>
<feBlend mode="normal" in="SourceGraphic" in2="effect1_dropShadow_11_88" result="shape"/>
</filter>
<filter id="filter4_d_11_88" x="35.3333" y="27.1167" width="11.5555" height="11.5111" filterUnits="userSpaceOnUse" color-interpolation-filters="sRGB">
<feFlood flood-opacity="0" result="BackgroundImageFix"/>
<feColorMatrix in="SourceAlpha" type="matrix" values="0 0 0 0 0 0 0 0 0 0 0 0 0 0 0 0 0 0 127 0" result="hardAlpha"/>
<feOffset dy="4"/>
<feGaussianBlur stdDeviation="2"/>
<feComposite in2="hardAlpha" operator="out"/>
<feColorMatrix type="matrix" values="0 0 0 0 0 0 0 0 0 0 0 0 0 0 0 0 0 0 0.25 0"/>
<feBlend mode="normal" in2="BackgroundImageFix" result="effect1_dropShadow_11_88"/>
<feBlend mode="normal" in="SourceGraphic" in2="effect1_dropShadow_11_88" result="shape"/>
</filter>
<filter id="filter5_d_11_88" x="30" y="31.5056" width="10.6667" height="10.6333" filterUnits="userSpaceOnUse" color-interpolation-filters="sRGB">
<feFlood flood-opacity="0" result="BackgroundImageFix"/>
<feColorMatrix in="SourceAlpha" type="matrix" values="0 0 0 0 0 0 0 0 0 0 0 0 0 0 0 0 0 0 127 0" result="hardAlpha"/>
<feOffset dy="4"/>
<feGaussianBlur stdDeviation="2"/>
<feComposite in2="hardAlpha" operator="out"/>
<feColorMatrix type="matrix" values="0 0 0 0 0 0 0 0 0 0 0 0 0 0 0 0 0 0 0.25 0"/>
<feBlend mode="normal" in2="BackgroundImageFix" result="effect1_dropShadow_11_88"/>
<feBlend mode="normal" in="SourceGraphic" in2="effect1_dropShadow_11_88" result="shape"/>
</filter>
<filter id="filter6_d_11_88" x="27.3333" y="35.4556" width="10.6667" height="10.1944" filterUnits="userSpaceOnUse" color-interpolation-filters="sRGB">
<feFlood flood-opacity="0" result="BackgroundImageFix"/>
<feColorMatrix in="SourceAlpha" type="matrix" values="0 0 0 0 0 0 0 0 0 0 0 0 0 0 0 0 0 0 127 0" result="hardAlpha"/>
<feOffset dy="4"/>
<feGaussianBlur stdDeviation="2"/>
<feComposite in2="hardAlpha" operator="out"/>
<feColorMatrix type="matrix" values="0 0 0 0 0 0 0 0 0 0 0 0 0 0 0 0 0 0 0.25 0"/>
<feBlend mode="normal" in2="BackgroundImageFix" result="effect1_dropShadow_11_88"/>
<feBlend mode="normal" in="SourceGraphic" in2="effect1_dropShadow_11_88" result="shape"/>
</filter>
<linearGradient id="paint0_linear_11_88" x1="58" y1="16.5833" x2="57.3499" y2="83.7335" gradientUnits="userSpaceOnUse">
<stop stop-color="#46D9E9"/>
<stop offset="0.465" stop-color="#62A3E6"/>
<stop offset="0.565" stop-color="#6F88E4"/>
<stop offset="0.755" stop-color="#7D6DE2"/>
<stop offset="0.895" stop-color="#9837DF"/>
<stop offset="1" stop-color="#B401DC"/>
</linearGradient>
<linearGradient id="paint1_linear_11_88" x1="39.6938" y1="32.448" x2="40.2653" y2="43.4914" gradientUnits="userSpaceOnUse">
<stop stop-color="#736E6E"/>
<stop offset="0.925" stop-color="#272121"/>
</linearGradient>
<linearGradient id="paint2_linear_11_88" x1="32.6667" y1="37.842" x2="32.6667" y2="39.817" gradientUnits="userSpaceOnUse">
<stop stop-color="#999393"/>
<stop offset="1" stop-color="#201E1E"/>
</linearGradient>
</defs>
</svg>
