<svg width="194" height="186" viewBox="0 0 194 186" fill="none" xmlns="http://www.w3.org/2000/svg">
<g filter="url(#filter0_dd_27_10)">
<g filter="url(#filter1_d_27_10)">
<path d="M172 85C172 126.421 138.421 160 97 160C55.5786 160 22 126.421 22 85C22 43.5786 55.5786 10 97 10C138.421 10 172 43.5786 172 85Z" fill="url(#paint0_linear_27_10)"/>
</g>
<path fill-rule="evenodd" clip-rule="evenodd" d="M36 67.5C31.0502 67.5 26.7603 68.1392 23.1254 69.0783L21.8746 64.2373C25.9045 63.1961 30.6146 62.5 36 62.5C46.4319 62.5 54.3123 65.1111 59.618 67.7639C62.2668 69.0883 64.2689 70.4204 65.625 71.4375C66.3033 71.9462 66.8207 72.3767 67.1775 72.6889C67.356 72.845 67.4943 72.9717 67.5927 73.0639C67.6419 73.11 67.681 73.1474 67.7102 73.1757L67.7465 73.2111L67.759 73.2235L67.7611 73.2256L67.7627 73.2271L67.7639 73.2283L67.7648 73.2292L67.7688 73.2331C67.7787 73.2427 67.7981 73.2613 67.8271 73.2885C67.885 73.3428 67.981 73.4309 68.115 73.5482C68.3832 73.7829 68.8033 74.1337 69.375 74.5625C70.5189 75.4204 72.2668 76.5883 74.618 77.7639C79.3123 80.1111 86.4319 82.5 96 82.5C105.568 82.5 112.688 80.1111 117.382 77.7639C119.733 76.5883 121.481 75.4204 122.625 74.5625C123.197 74.1337 123.617 73.7829 123.885 73.5482C124.019 73.4309 124.115 73.3428 124.173 73.2885C124.194 73.2692 124.209 73.2542 124.22 73.2437L124.231 73.2331L124.234 73.2306C124.233 73.2314 124.232 73.2322 126 75C127.768 76.7678 127.767 76.7687 127.766 76.7696L127.764 76.7717L127.761 76.7744L127.759 76.7765L127.746 76.7889L127.71 76.8243C127.681 76.8526 127.642 76.89 127.593 76.9361C127.494 77.0283 127.356 77.155 127.178 77.3111C126.821 77.6233 126.303 78.0538 125.625 78.5625C124.269 79.5796 122.267 80.9117 119.618 82.2361C114.312 84.8889 106.432 87.5 96 87.5C85.5681 87.5 77.6877 84.8889 72.382 82.2361C69.7332 80.9117 67.7312 79.5796 66.375 78.5625C65.6968 78.0538 65.1793 77.6233 64.8225 77.3111C64.6441 77.155 64.5057 77.0283 64.4073 76.9361C64.3582 76.89 64.319 76.8526 64.2898 76.8243L64.2535 76.7889L64.241 76.7765L64.2389 76.7744L64.2374 76.7729L64.2362 76.7717L64.2353 76.7708L64.2312 76.7669C64.2213 76.7573 64.2019 76.7387 64.173 76.7115C64.1151 76.6572 64.0191 76.5691 63.885 76.4518C63.6168 76.2171 63.1968 75.8663 62.625 75.4375C61.4812 74.5796 59.7332 73.4117 57.382 72.2361C52.6877 69.8889 45.5681 67.5 36 67.5ZM126 75C127.768 76.7678 127.767 76.7687 127.766 76.7696L127.768 76.7678L127.769 76.7669C127.779 76.7573 127.798 76.7387 127.827 76.7115C127.885 76.6572 127.981 76.5691 128.115 76.4518C128.383 76.2171 128.803 75.8663 129.375 75.4375C130.519 74.5796 132.267 73.4117 134.618 72.2361C139.312 69.8889 146.432 67.5 156 67.5C161.838 67.5 166.759 68.389 170.771 69.6119L172.229 64.8291C167.766 63.4688 162.354 62.5 156 62.5C145.568 62.5 137.688 65.1111 132.382 67.7639C129.733 69.0883 127.731 70.4204 126.375 71.4375C125.697 71.9462 125.179 72.3767 124.823 72.6889C124.644 72.845 124.506 72.9717 124.407 73.0639C124.358 73.11 124.319 73.1474 124.29 73.1757L124.254 73.2111L124.241 73.2235L124.239 73.2256L124.236 73.2283L124.234 73.2306C124.233 73.2314 124.232 73.2322 126 75Z" fill="#272121"/>
<path fill-rule="evenodd" clip-rule="evenodd" d="M36 87.5C29.6957 87.5 24.4592 88.5369 20.2817 89.912L18.7183 85.1627C23.3736 83.6303 29.1371 82.5 36 82.5C46.4319 82.5 54.3123 85.1111 59.618 87.7639C62.2668 89.0883 64.2689 90.4204 65.625 91.4375C66.3033 91.9462 66.8207 92.3767 67.1775 92.6889C67.356 92.845 67.4943 92.9717 67.5927 93.0639C67.6418 93.11 67.681 93.1474 67.7102 93.1757L67.7465 93.2111L67.759 93.2235L67.7611 93.2256L67.7627 93.2271L67.7639 93.2283L67.7648 93.2292L67.7688 93.2331C67.7787 93.2427 67.7981 93.2613 67.827 93.2885C67.885 93.3428 67.981 93.4309 68.115 93.5482C68.3832 93.7829 68.8033 94.1337 69.375 94.5625C70.5189 95.4204 72.2668 96.5883 74.618 97.7639C79.3123 100.111 86.4319 102.5 96 102.5C105.568 102.5 112.688 100.111 117.382 97.7639C119.733 96.5883 121.481 95.4204 122.625 94.5625C123.197 94.1337 123.617 93.7829 123.885 93.5482C124.019 93.4309 124.115 93.3428 124.173 93.2885C124.202 93.2613 124.221 93.2427 124.231 93.2331L124.234 93.2306C124.233 93.2314 124.232 93.2322 126 95C127.768 96.7678 127.767 96.7687 127.766 96.7696L127.764 96.7717L127.761 96.7744L127.759 96.7765L127.746 96.7889L127.71 96.8243C127.681 96.8526 127.642 96.89 127.593 96.9361C127.494 97.0283 127.356 97.155 127.178 97.3111C126.821 97.6233 126.303 98.0538 125.625 98.5625C124.269 99.5796 122.267 100.912 119.618 102.236C114.312 104.889 106.432 107.5 96 107.5C85.5681 107.5 77.6877 104.889 72.382 102.236C69.7332 100.912 67.7312 99.5796 66.375 98.5625C65.6968 98.0538 65.1793 97.6233 64.8225 97.3111C64.6441 97.155 64.5057 97.0283 64.4073 96.9361C64.3582 96.89 64.319 96.8526 64.2898 96.8243L64.2535 96.7889L64.241 96.7765L64.2389 96.7744L64.2374 96.7729L64.2362 96.7717L64.2352 96.7708L64.2312 96.7669C64.2213 96.7573 64.2019 96.7387 64.173 96.7115C64.1151 96.6572 64.0191 96.5691 63.885 96.4518C63.6168 96.2171 63.1968 95.8663 62.625 95.4375C61.4812 94.5796 59.7332 93.4117 57.382 92.2361C52.6877 89.8889 45.5681 87.5 36 87.5ZM126 95C127.768 96.7678 127.767 96.7687 127.766 96.7696L127.768 96.7678L127.769 96.7669C127.779 96.7573 127.798 96.7387 127.827 96.7115C127.885 96.6572 127.981 96.5691 128.115 96.4518C128.383 96.2171 128.803 95.8663 129.375 95.4375C130.519 94.5796 132.267 93.4117 134.618 92.2361C139.312 89.8889 146.432 87.5 156 87.5C163.552 87.5 169.575 88.9882 174.083 90.7662L175.917 86.115C170.87 84.1239 164.226 82.5 156 82.5C145.568 82.5 137.688 85.1111 132.382 87.7639C129.733 89.0883 127.731 90.4204 126.375 91.4375C125.697 91.9462 125.179 92.3767 124.822 92.6889C124.644 92.845 124.506 92.9717 124.407 93.0639C124.358 93.11 124.319 93.1474 124.29 93.1757L124.254 93.2111L124.241 93.2235L124.239 93.2256L124.236 93.2283L124.234 93.2306C124.233 93.2314 124.232 93.2322 126 95Z" fill="#272121"/>
<path fill-rule="evenodd" clip-rule="evenodd" d="M37 107.5C32.4741 107.5 28.5002 108.034 25.0748 108.844L23.9252 103.978C27.717 103.082 32.0764 102.5 37 102.5C47.4319 102.5 55.3123 105.111 60.618 107.764C63.2668 109.088 65.2688 110.42 66.625 111.438C67.3033 111.946 67.8207 112.377 68.1775 112.689C68.356 112.845 68.4943 112.972 68.5927 113.064C68.6418 113.11 68.681 113.147 68.7102 113.176L68.7465 113.211L68.759 113.223L68.7611 113.226L68.7627 113.227L68.7639 113.228L68.7648 113.229L68.7688 113.233C68.7787 113.243 68.7981 113.261 68.827 113.288C68.885 113.343 68.981 113.431 69.115 113.548C69.3832 113.783 69.8033 114.134 70.375 114.562C71.5188 115.42 73.2668 116.588 75.618 117.764C80.3123 120.111 87.4319 122.5 97 122.5C106.568 122.5 113.688 120.111 118.382 117.764C120.733 116.588 122.481 115.42 123.625 114.562C124.197 114.134 124.617 113.783 124.885 113.548C125.019 113.431 125.115 113.343 125.173 113.288C125.202 113.261 125.221 113.243 125.231 113.233L125.234 113.231C125.233 113.231 125.232 113.232 127 115C128.768 116.768 128.767 116.769 128.766 116.77L128.764 116.772L128.761 116.774L128.759 116.777L128.746 116.789L128.71 116.824C128.681 116.853 128.642 116.89 128.593 116.936C128.494 117.028 128.356 117.155 128.178 117.311C127.821 117.623 127.303 118.054 126.625 118.562C125.269 119.58 123.267 120.912 120.618 122.236C115.312 124.889 107.432 127.5 97 127.5C86.5681 127.5 78.6877 124.889 73.382 122.236C70.7332 120.912 68.7312 119.58 67.375 118.562C66.6968 118.054 66.1793 117.623 65.8225 117.311C65.6441 117.155 65.5057 117.028 65.4073 116.936C65.3582 116.89 65.319 116.853 65.2898 116.824L65.2535 116.789L65.241 116.777L65.2389 116.774L65.2374 116.773L65.2362 116.772L65.2352 116.771L65.2312 116.767C65.2213 116.757 65.2019 116.739 65.173 116.712C65.1151 116.657 65.0191 116.569 64.885 116.452C64.6168 116.217 64.1968 115.866 63.625 115.438C62.4812 114.58 60.7332 113.412 58.382 112.236C53.6877 109.889 46.5681 107.5 37 107.5ZM127 115C128.768 116.768 128.767 116.769 128.766 116.77L128.768 116.768L128.769 116.767C128.779 116.757 128.798 116.739 128.827 116.712C128.885 116.657 128.981 116.569 129.115 116.452C129.383 116.217 129.803 115.866 130.375 115.438C131.519 114.58 133.267 113.412 135.618 112.236C140.312 109.889 147.432 107.5 157 107.5C162.166 107.5 166.614 108.196 170.349 109.204L171.651 104.376C167.507 103.258 162.622 102.5 157 102.5C146.568 102.5 138.688 105.111 133.382 107.764C130.733 109.088 128.731 110.42 127.375 111.438C126.697 111.946 126.179 112.377 125.822 112.689C125.644 112.845 125.506 112.972 125.407 113.064C125.358 113.11 125.319 113.147 125.29 113.176L125.254 113.211L125.241 113.223L125.239 113.226L125.236 113.228L125.234 113.231C125.233 113.231 125.232 113.232 127 115Z" fill="#272121"/>
<path fill-rule="evenodd" clip-rule="evenodd" d="M37 127.5C35.1543 127.5 33.401 127.589 31.7396 127.749L31.2603 122.772C33.0802 122.597 34.9935 122.5 37 122.5C47.4319 122.5 55.3123 125.111 60.618 127.764C63.2668 129.088 65.2688 130.42 66.625 131.438C67.3032 131.946 67.8207 132.377 68.1775 132.689C68.3559 132.845 68.4943 132.972 68.5927 133.064C68.6418 133.11 68.681 133.147 68.7102 133.176L68.7465 133.211L68.759 133.223L68.7611 133.226L68.7626 133.227L68.7638 133.228L68.7648 133.229L68.7688 133.233C68.7787 133.243 68.7981 133.261 68.827 133.288C68.8849 133.343 68.9809 133.431 69.115 133.548C69.3832 133.783 69.8032 134.134 70.375 134.562C71.5188 135.42 73.2668 136.588 75.618 137.764C80.3123 140.111 87.4319 142.5 97 142.5C106.568 142.5 113.688 140.111 118.382 137.764C120.733 136.588 122.481 135.42 123.625 134.562C124.197 134.134 124.617 133.783 124.885 133.548C125.019 133.431 125.115 133.343 125.173 133.288C125.202 133.261 125.221 133.243 125.231 133.233L125.234 133.231C125.233 133.231 125.232 133.232 127 135C128.768 136.768 128.767 136.769 128.766 136.77L128.764 136.772L128.761 136.774L128.759 136.777L128.746 136.789L128.71 136.824C128.693 136.841 128.671 136.862 128.646 136.885C128.63 136.901 128.612 136.918 128.593 136.936C128.494 137.028 128.356 137.155 128.178 137.311C127.821 137.623 127.303 138.054 126.625 138.562C125.269 139.58 123.267 140.912 120.618 142.236C115.312 144.889 107.432 147.5 97 147.5C86.5681 147.5 78.6877 144.889 73.382 142.236C70.7332 140.912 68.7312 139.58 67.375 138.562C66.6967 138.054 66.1793 137.623 65.8225 137.311C65.644 137.155 65.5057 137.028 65.4073 136.936C65.3582 136.89 65.319 136.853 65.2898 136.824L65.2535 136.789L65.241 136.777L65.2389 136.774L65.2373 136.773L65.2361 136.772L65.2352 136.771L65.2312 136.767C65.2213 136.757 65.2019 136.739 65.173 136.712C65.115 136.657 65.019 136.569 64.885 136.452C64.6168 136.217 64.1967 135.866 63.625 135.438C62.4811 134.58 60.7332 133.412 58.382 132.236C53.6877 129.889 46.5681 127.5 37 127.5ZM127 135C128.768 136.768 128.767 136.769 128.766 136.77L128.768 136.768L128.769 136.767C128.779 136.757 128.798 136.739 128.827 136.712C128.885 136.657 128.981 136.569 129.115 136.452C129.383 136.217 129.803 135.866 130.375 135.438C131.519 134.58 133.267 133.412 135.618 132.236C140.312 129.889 147.432 127.5 157 127.5C158.846 127.5 160.599 127.589 162.26 127.749L162.74 122.772C160.92 122.597 159.006 122.5 157 122.5C146.568 122.5 138.688 125.111 133.382 127.764C130.733 129.088 128.731 130.42 127.375 131.438C126.697 131.946 126.179 132.377 125.822 132.689C125.644 132.845 125.506 132.972 125.407 133.064C125.358 133.11 125.319 133.147 125.29 133.176L125.254 133.211L125.241 133.223L125.239 133.226L125.236 133.228L125.234 133.231C125.233 133.231 125.232 133.232 127 135Z" fill="#272121"/>
</g>
<path d="M111 36.8705C111 35.4051 112.367 34.3235 113.793 34.6608L140.252 40.9198C141.276 41.1622 142 42.0768 142 43.1295V43.1295C142 44.5949 140.633 45.6765 139.207 45.3392L112.748 39.0802C111.724 38.8378 111 37.9232 111 36.8705V36.8705Z" fill="#272121"/>
<path d="M109 23.7604C109 22.3407 110.31 21.2833 111.698 21.5834L140.136 27.7321C141.224 27.9673 142 28.9294 142 30.0424V30.0424C142 31.5581 140.594 32.6821 139.115 32.3479L110.736 25.933C109.721 25.7035 109 24.8014 109 23.7604V23.7604Z" fill="#272121"/>
<path d="M109 25.1667C109 23.2794 111.011 22.0726 112.676 22.9608V22.9608C113.491 23.3953 114 24.2434 114 25.1667V60.5C114 61.8807 112.881 63 111.5 63V63C110.119 63 109 61.8807 109 60.5V25.1667Z" fill="#272121"/>
<rect x="137.145" y="28.9938" width="4.85484" height="29.3094" rx="2.42742" fill="#272121"/>
<path d="M112.5 63C112.5 63.7231 112.06 64.5614 110.971 65.2875C109.893 66.0065 108.316 66.5 106.5 66.5C104.684 66.5 103.107 66.0065 102.029 65.2875C100.94 64.5614 100.5 63.7231 100.5 63C100.5 62.2769 100.94 61.4386 102.029 60.7125C103.107 59.9935 104.684 59.5 106.5 59.5C108.316 59.5 109.893 59.9935 110.971 60.7125C112.06 61.4386 112.5 62.2769 112.5 63Z" fill="#424C5F" stroke="#272121" stroke-width="3"/>
<path d="M140.5 57.9701C140.5 58.7121 140.063 59.5494 139.019 60.2658C137.981 60.9776 136.465 61.466 134.718 61.466C132.97 61.466 131.454 60.9776 130.417 60.2658C129.373 59.5494 128.935 58.7121 128.935 57.9701C128.935 57.2281 129.373 56.3908 130.417 55.6744C131.454 54.9626 132.97 54.4742 134.718 54.4742C136.465 54.4742 137.981 54.9626 139.019 55.6744C140.063 56.3908 140.5 57.2281 140.5 57.9701Z" fill="#424C5F" stroke="#272121" stroke-width="3"/>
<defs>
<filter id="filter0_dd_27_10" x="0.718323" y="0" width="193.199" height="186" filterUnits="userSpaceOnUse" color-interpolation-filters="sRGB">
<feFlood flood-opacity="0" result="BackgroundImageFix"/>
<feColorMatrix in="SourceAlpha" type="matrix" values="0 0 0 0 0 0 0 0 0 0 0 0 0 0 0 0 0 0 127 0" result="hardAlpha"/>
<feOffset dy="4"/>
<feGaussianBlur stdDeviation="2"/>
<feColorMatrix type="matrix" values="0 0 0 0 0 0 0 0 0 0 0 0 0 0 0 0 0 0 0.3 0"/>
<feBlend mode="normal" in2="BackgroundImageFix" result="effect1_dropShadow_27_10"/>
<feColorMatrix in="SourceAlpha" type="matrix" values="0 0 0 0 0 0 0 0 0 0 0 0 0 0 0 0 0 0 127 0" result="hardAlpha"/>
<feMorphology radius="6" operator="dilate" in="SourceAlpha" result="effect2_dropShadow_27_10"/>
<feOffset dy="8"/>
<feGaussianBlur stdDeviation="6"/>
<feColorMatrix type="matrix" values="0 0 0 0 0 0 0 0 0 0 0 0 0 0 0 0 0 0 0.15 0"/>
<feBlend mode="normal" in2="effect1_dropShadow_27_10" result="effect2_dropShadow_27_10"/>
<feBlend mode="normal" in="SourceGraphic" in2="effect2_dropShadow_27_10" result="shape"/>
</filter>
<filter id="filter1_d_27_10" x="18" y="10" width="158" height="174" filterUnits="userSpaceOnUse" color-interpolation-filters="sRGB">
<feFlood flood-opacity="0" result="BackgroundImageFix"/>
<feColorMatrix in="SourceAlpha" type="matrix" values="0 0 0 0 0 0 0 0 0 0 0 0 0 0 0 0 0 0 127 0" result="hardAlpha"/>
<feOffset dy="20"/>
<feGaussianBlur stdDeviation="2"/>
<feComposite in2="hardAlpha" operator="out"/>
<feColorMatrix type="matrix" values="0 0 0 0 0 0 0 0 0 0 0 0 0 0 0 0 0 0 0.25 0"/>
<feBlend mode="normal" in2="BackgroundImageFix" result="effect1_dropShadow_27_10"/>
<feBlend mode="normal" in="SourceGraphic" in2="effect1_dropShadow_27_10" result="shape"/>
</filter>
<linearGradient id="paint0_linear_27_10" x1="97" y1="10" x2="95.5" y2="163" gradientUnits="userSpaceOnUse">
<stop stop-color="#46D9E9"/>
<stop offset="0.465" stop-color="#62A3E6"/>
<stop offset="0.565" stop-color="#6F88E4"/>
<stop offset="0.755" stop-color="#7D6DE2"/>
<stop offset="0.895" stop-color="#9837DF"/>
<stop offset="1" stop-color="#B401DC"/>
</linearGradient>
</defs>
</svg>
