<svg width="270" height="237" viewBox="0 0 270 237" fill="none" xmlns="http://www.w3.org/2000/svg">
<g filter="url(#filter0_dd_11_56)">
<g filter="url(#filter1_d_11_56)">
<path d="M210 100C210 141.421 176.421 175 135 175C93.5786 175 60 141.421 60 100C60 58.5786 93.5786 25 135 25C176.421 25 210 58.5786 210 100Z" fill="url(#paint0_linear_11_56)"/>
</g>
<path fill-rule="evenodd" clip-rule="evenodd" d="M135 175C176.421 175 210 141.421 210 100C210 58.5786 176.421 25 135 25C93.5786 25 60 58.5786 60 100C60 141.421 93.5786 175 135 175ZM135 190C184.706 190 225 149.706 225 100C225 50.2944 184.706 10 135 10C85.2944 10 45 50.2944 45 100C45 149.706 85.2944 190 135 190Z" fill="#272121"/>
<path fill-rule="evenodd" clip-rule="evenodd" d="M74 82.5C69.0502 82.5 64.7603 83.1392 61.1254 84.0783L59.8746 79.2373C63.9045 78.1961 68.6146 77.5 74 77.5C84.4319 77.5 92.3123 80.1111 97.618 82.7639C100.267 84.0883 102.269 85.4204 103.625 86.4375C104.303 86.9462 104.821 87.3767 105.178 87.6889C105.356 87.845 105.494 87.9717 105.593 88.0639C105.642 88.11 105.681 88.1474 105.71 88.1757L105.746 88.2111L105.759 88.2235L105.761 88.2256L105.763 88.2271L105.764 88.2283L105.765 88.2292L105.769 88.2331C105.779 88.2427 105.798 88.2613 105.827 88.2885C105.885 88.3428 105.981 88.4309 106.115 88.5482C106.383 88.7829 106.803 89.1337 107.375 89.5625C108.519 90.4204 110.267 91.5883 112.618 92.7639C117.312 95.1111 124.432 97.5 134 97.5C143.568 97.5 150.688 95.1111 155.382 92.7639C157.733 91.5883 159.481 90.4204 160.625 89.5625C161.197 89.1337 161.617 88.7829 161.885 88.5482C162.019 88.4309 162.115 88.3428 162.173 88.2885C162.193 88.2692 162.209 88.2542 162.22 88.2437L162.231 88.2331L162.234 88.2306C162.233 88.2314 162.232 88.2322 164 90C165.768 91.7678 165.767 91.7687 165.766 91.7696L165.764 91.7717L165.761 91.7744L165.759 91.7765L165.746 91.7889L165.71 91.8243C165.681 91.8526 165.642 91.89 165.593 91.9361C165.494 92.0283 165.356 92.155 165.178 92.3111C164.821 92.6233 164.303 93.0538 163.625 93.5625C162.269 94.5796 160.267 95.9117 157.618 97.2361C152.312 99.8889 144.432 102.5 134 102.5C123.568 102.5 115.688 99.8889 110.382 97.2361C107.733 95.9117 105.731 94.5796 104.375 93.5625C103.697 93.0538 103.179 92.6233 102.822 92.3111C102.644 92.155 102.506 92.0283 102.407 91.9361C102.358 91.89 102.319 91.8526 102.29 91.8243L102.254 91.7889L102.241 91.7765L102.239 91.7744L102.237 91.7729L102.236 91.7717L102.235 91.7708L102.231 91.7669C102.221 91.7573 102.202 91.7387 102.173 91.7115C102.115 91.6572 102.019 91.5691 101.885 91.4518C101.617 91.2171 101.197 90.8663 100.625 90.4375C99.4812 89.5796 97.7332 88.4117 95.382 87.2361C90.6877 84.8889 83.5681 82.5 74 82.5ZM164 90C165.768 91.7678 165.767 91.7687 165.766 91.7696L165.768 91.7678L165.769 91.7669C165.779 91.7573 165.798 91.7387 165.827 91.7115C165.885 91.6572 165.981 91.5691 166.115 91.4518C166.383 91.2171 166.803 90.8663 167.375 90.4375C168.519 89.5796 170.267 88.4117 172.618 87.2361C177.312 84.8889 184.432 82.5 194 82.5C199.838 82.5 204.759 83.389 208.771 84.6119L210.229 79.8291C205.766 78.4688 200.354 77.5 194 77.5C183.568 77.5 175.688 80.1111 170.382 82.7639C167.733 84.0883 165.731 85.4204 164.375 86.4375C163.697 86.9462 163.179 87.3767 162.822 87.6889C162.644 87.845 162.506 87.9717 162.407 88.0639C162.358 88.11 162.319 88.1474 162.29 88.1757L162.254 88.2111L162.241 88.2235L162.239 88.2256L162.236 88.2283L162.234 88.2306C162.233 88.2314 162.232 88.2322 164 90Z" fill="#272121"/>
<path fill-rule="evenodd" clip-rule="evenodd" d="M74 102.5C67.6957 102.5 62.4592 103.537 58.2817 104.912L56.7183 100.163C61.3736 98.6303 67.1371 97.5 74 97.5C84.4319 97.5 92.3123 100.111 97.618 102.764C100.267 104.088 102.269 105.42 103.625 106.438C104.303 106.946 104.821 107.377 105.178 107.689C105.356 107.845 105.494 107.972 105.593 108.064C105.642 108.11 105.681 108.147 105.71 108.176L105.746 108.211L105.759 108.223L105.761 108.226L105.763 108.227L105.764 108.228L105.765 108.229L105.769 108.233C105.779 108.243 105.798 108.261 105.827 108.288C105.885 108.343 105.981 108.431 106.115 108.548C106.383 108.783 106.803 109.134 107.375 109.562C108.519 110.42 110.267 111.588 112.618 112.764C117.312 115.111 124.432 117.5 134 117.5C143.568 117.5 150.688 115.111 155.382 112.764C157.733 111.588 159.481 110.42 160.625 109.562C161.197 109.134 161.617 108.783 161.885 108.548C162.019 108.431 162.115 108.343 162.173 108.288C162.202 108.261 162.221 108.243 162.231 108.233L162.234 108.231C162.233 108.231 162.232 108.232 164 110C165.768 111.768 165.767 111.769 165.766 111.77L165.764 111.772L165.761 111.774L165.759 111.777L165.746 111.789L165.71 111.824C165.681 111.853 165.642 111.89 165.593 111.936C165.494 112.028 165.356 112.155 165.178 112.311C164.821 112.623 164.303 113.054 163.625 113.562C162.269 114.58 160.267 115.912 157.618 117.236C152.312 119.889 144.432 122.5 134 122.5C123.568 122.5 115.688 119.889 110.382 117.236C107.733 115.912 105.731 114.58 104.375 113.562C103.697 113.054 103.179 112.623 102.822 112.311C102.644 112.155 102.506 112.028 102.407 111.936C102.358 111.89 102.319 111.853 102.29 111.824L102.254 111.789L102.241 111.777L102.239 111.774L102.237 111.773L102.236 111.772L102.235 111.771L102.231 111.767C102.221 111.757 102.202 111.739 102.173 111.712C102.115 111.657 102.019 111.569 101.885 111.452C101.617 111.217 101.197 110.866 100.625 110.438C99.4812 109.58 97.7332 108.412 95.382 107.236C90.6877 104.889 83.5681 102.5 74 102.5ZM164 110C165.768 111.768 165.767 111.769 165.766 111.77L165.768 111.768L165.769 111.767C165.779 111.757 165.798 111.739 165.827 111.712C165.885 111.657 165.981 111.569 166.115 111.452C166.383 111.217 166.803 110.866 167.375 110.438C168.519 109.58 170.267 108.412 172.618 107.236C177.312 104.889 184.432 102.5 194 102.5C201.552 102.5 207.575 103.988 212.083 105.766L213.917 101.115C208.87 99.1239 202.226 97.5 194 97.5C183.568 97.5 175.688 100.111 170.382 102.764C167.733 104.088 165.731 105.42 164.375 106.438C163.697 106.946 163.179 107.377 162.822 107.689C162.644 107.845 162.506 107.972 162.407 108.064C162.358 108.11 162.319 108.147 162.29 108.176L162.254 108.211L162.241 108.223L162.239 108.226L162.236 108.228L162.234 108.231C162.233 108.231 162.232 108.232 164 110Z" fill="#272121"/>
<path fill-rule="evenodd" clip-rule="evenodd" d="M75 122.5C70.4741 122.5 66.5002 123.034 63.0748 123.844L61.9252 118.978C65.717 118.082 70.0764 117.5 75 117.5C85.4319 117.5 93.3123 120.111 98.618 122.764C101.267 124.088 103.269 125.42 104.625 126.438C105.303 126.946 105.821 127.377 106.178 127.689C106.356 127.845 106.494 127.972 106.593 128.064C106.642 128.11 106.681 128.147 106.71 128.176L106.746 128.211L106.759 128.223L106.761 128.226L106.763 128.227L106.764 128.228L106.765 128.229L106.769 128.233C106.779 128.243 106.798 128.261 106.827 128.288C106.885 128.343 106.981 128.431 107.115 128.548C107.383 128.783 107.803 129.134 108.375 129.562C109.519 130.42 111.267 131.588 113.618 132.764C118.312 135.111 125.432 137.5 135 137.5C144.568 137.5 151.688 135.111 156.382 132.764C158.733 131.588 160.481 130.42 161.625 129.562C162.197 129.134 162.617 128.783 162.885 128.548C163.019 128.431 163.115 128.343 163.173 128.288C163.202 128.261 163.221 128.243 163.231 128.233L163.234 128.231C163.233 128.231 163.232 128.232 165 130C166.768 131.768 166.767 131.769 166.766 131.77L166.764 131.772L166.761 131.774L166.759 131.777L166.746 131.789L166.71 131.824C166.681 131.853 166.642 131.89 166.593 131.936C166.494 132.028 166.356 132.155 166.178 132.311C165.821 132.623 165.303 133.054 164.625 133.562C163.269 134.58 161.267 135.912 158.618 137.236C153.312 139.889 145.432 142.5 135 142.5C124.568 142.5 116.688 139.889 111.382 137.236C108.733 135.912 106.731 134.58 105.375 133.562C104.697 133.054 104.179 132.623 103.822 132.311C103.644 132.155 103.506 132.028 103.407 131.936C103.358 131.89 103.319 131.853 103.29 131.824L103.254 131.789L103.241 131.777L103.239 131.774L103.237 131.773L103.236 131.772L103.235 131.771L103.231 131.767C103.221 131.757 103.202 131.739 103.173 131.712C103.115 131.657 103.019 131.569 102.885 131.452C102.617 131.217 102.197 130.866 101.625 130.438C100.481 129.58 98.7332 128.412 96.382 127.236C91.6877 124.889 84.5681 122.5 75 122.5ZM165 130C166.768 131.768 166.767 131.769 166.766 131.77L166.768 131.768L166.769 131.767C166.779 131.757 166.798 131.739 166.827 131.712C166.885 131.657 166.981 131.569 167.115 131.452C167.383 131.217 167.803 130.866 168.375 130.438C169.519 129.58 171.267 128.412 173.618 127.236C178.312 124.889 185.432 122.5 195 122.5C200.166 122.5 204.614 123.196 208.349 124.204L209.651 119.376C205.507 118.258 200.622 117.5 195 117.5C184.568 117.5 176.688 120.111 171.382 122.764C168.733 124.088 166.731 125.42 165.375 126.438C164.697 126.946 164.179 127.377 163.822 127.689C163.644 127.845 163.506 127.972 163.407 128.064C163.358 128.11 163.319 128.147 163.29 128.176L163.254 128.211L163.241 128.223L163.239 128.226L163.236 128.228L163.234 128.231C163.233 128.231 163.232 128.232 165 130Z" fill="#272121"/>
<path fill-rule="evenodd" clip-rule="evenodd" d="M75 142.5C73.1543 142.5 71.401 142.589 69.7397 142.749L69.2604 137.772C71.0802 137.597 72.9935 137.5 75 137.5C85.4319 137.5 93.3123 140.111 98.618 142.764C101.267 144.088 103.269 145.42 104.625 146.438C105.303 146.946 105.821 147.377 106.178 147.689C106.356 147.845 106.494 147.972 106.593 148.064C106.642 148.11 106.681 148.147 106.71 148.176L106.746 148.211L106.759 148.223L106.761 148.226L106.763 148.227L106.764 148.228L106.765 148.229L106.769 148.233C106.779 148.243 106.798 148.261 106.827 148.288C106.885 148.343 106.981 148.431 107.115 148.548C107.383 148.783 107.803 149.134 108.375 149.562C109.519 150.42 111.267 151.588 113.618 152.764C118.312 155.111 125.432 157.5 135 157.5C144.568 157.5 151.688 155.111 156.382 152.764C158.733 151.588 160.481 150.42 161.625 149.562C162.197 149.134 162.617 148.783 162.885 148.548C163.019 148.431 163.115 148.343 163.173 148.288C163.202 148.261 163.221 148.243 163.231 148.233L163.234 148.231C163.233 148.231 163.232 148.232 165 150C166.768 151.768 166.767 151.769 166.766 151.77L166.764 151.772L166.761 151.774L166.759 151.777L166.746 151.789L166.71 151.824C166.693 151.841 166.671 151.862 166.646 151.885C166.63 151.901 166.612 151.918 166.593 151.936C166.494 152.028 166.356 152.155 166.178 152.311C165.821 152.623 165.303 153.054 164.625 153.562C163.269 154.58 161.267 155.912 158.618 157.236C153.312 159.889 145.432 162.5 135 162.5C124.568 162.5 116.688 159.889 111.382 157.236C108.733 155.912 106.731 154.58 105.375 153.562C104.697 153.054 104.179 152.623 103.822 152.311C103.644 152.155 103.506 152.028 103.407 151.936C103.358 151.89 103.319 151.853 103.29 151.824L103.254 151.789L103.241 151.777L103.239 151.774L103.237 151.773L103.236 151.772L103.235 151.771L103.231 151.767C103.221 151.757 103.202 151.739 103.173 151.712C103.115 151.657 103.019 151.569 102.885 151.452C102.617 151.217 102.197 150.866 101.625 150.438C100.481 149.58 98.7332 148.412 96.382 147.236C91.6877 144.889 84.5681 142.5 75 142.5ZM165 150C166.768 151.768 166.767 151.769 166.766 151.77L166.768 151.768L166.769 151.767C166.779 151.757 166.798 151.739 166.827 151.712C166.885 151.657 166.981 151.569 167.115 151.452C167.383 151.217 167.803 150.866 168.375 150.438C169.519 149.58 171.267 148.412 173.618 147.236C178.312 144.889 185.432 142.5 195 142.5C196.846 142.5 198.599 142.589 200.26 142.749L200.74 137.772C198.92 137.597 197.006 137.5 195 137.5C184.568 137.5 176.688 140.111 171.382 142.764C168.733 144.088 166.731 145.42 165.375 146.438C164.697 146.946 164.179 147.377 163.822 147.689C163.644 147.845 163.506 147.972 163.407 148.064C163.358 148.11 163.319 148.147 163.29 148.176L163.254 148.211L163.241 148.223L163.239 148.226L163.236 148.228L163.234 148.231C163.233 148.231 163.232 148.232 165 150Z" fill="#272121"/>
<path fill-rule="evenodd" clip-rule="evenodd" d="M135 180C179.183 180 215 144.183 215 100C215 55.8172 179.183 20 135 20C90.8172 20 55 55.8172 55 100C55 144.183 90.8172 180 135 180ZM135 190C184.706 190 225 149.706 225 100C225 50.2944 184.706 10 135 10C85.2944 10 45 50.2944 45 100C45 149.706 85.2944 190 135 190Z" fill="#D9D9D9"/>
</g>
<path d="M149 51.8705C149 50.4051 150.367 49.3235 151.793 49.6608L178.252 55.9198C179.276 56.1622 180 57.0768 180 58.1295C180 59.5949 178.633 60.6765 177.207 60.3392L150.748 54.0802C149.724 53.8378 149 52.9232 149 51.8705Z" fill="#272121"/>
<path d="M147 38.7604C147 37.3407 148.31 36.2833 149.698 36.5834L178.136 42.7321C179.224 42.9673 180 43.9294 180 45.0424C180 46.5581 178.594 47.6821 177.115 47.3479L148.736 40.933C147.721 40.7035 147 39.8014 147 38.7604Z" fill="#272121"/>
<path d="M147 40.1667C147 38.2794 149.011 37.0726 150.676 37.9608C151.491 38.3953 152 39.2434 152 40.1667V75.5C152 76.8807 150.881 78 149.5 78C148.119 78 147 76.8807 147 75.5V40.1667Z" fill="#272121"/>
<rect x="175.145" y="43.9938" width="4.85484" height="29.3094" rx="2.42742" fill="#272121"/>
<path d="M150.5 78C150.5 78.7231 150.06 79.5614 148.971 80.2875C147.893 81.0065 146.316 81.5 144.5 81.5C142.684 81.5 141.107 81.0065 140.029 80.2875C138.94 79.5614 138.5 78.7231 138.5 78C138.5 77.2769 138.94 76.4386 140.029 75.7125C141.107 74.9935 142.684 74.5 144.5 74.5C146.316 74.5 147.893 74.9935 148.971 75.7125C150.06 76.4386 150.5 77.2769 150.5 78Z" fill="#424C5F" stroke="#272121" stroke-width="3"/>
<path d="M178.5 72.9701C178.5 73.7121 178.063 74.5494 177.019 75.2658C175.981 75.9776 174.465 76.466 172.718 76.466C170.97 76.466 169.454 75.9776 168.417 75.2658C167.373 74.5494 166.935 73.7121 166.935 72.9701C166.935 72.2281 167.373 71.3908 168.417 70.6744C169.454 69.9626 170.97 69.4742 172.718 69.4742C174.465 69.4742 175.981 69.9626 177.019 70.6744C178.063 71.3908 178.5 72.2281 178.5 72.9701Z" fill="#424C5F" stroke="#272121" stroke-width="3"/>
<g filter="url(#filter2_dd_11_56)">
<ellipse cx="246" cy="100" rx="6" ry="5" fill="#D9D9D9"/>
</g>
<g filter="url(#filter3_dd_11_56)">
<ellipse cx="138" cy="206" rx="6" ry="5" fill="#D9D9D9"/>
</g>
<g filter="url(#filter4_dd_11_56)">
<ellipse cx="24" cy="97" rx="6" ry="5" fill="#D9D9D9"/>
</g>
<g filter="url(#filter5_dd_11_56)">
<circle cx="116" cy="77" r="3" fill="#272121"/>
</g>
<path fill-rule="evenodd" clip-rule="evenodd" d="M120.328 96.7111C120.328 96.7111 120.327 96.7104 118.941 97.5814C117.554 98.4524 117.554 98.4516 117.554 98.4516L117.553 98.4506L117.55 98.4485L117.545 98.4433L117.53 98.4287C117.519 98.4172 117.504 98.4021 117.486 98.3834C117.45 98.346 117.401 98.2941 117.342 98.2279C117.224 98.0954 117.064 97.9051 116.878 97.6571C116.507 97.1611 116.034 96.4334 115.592 95.4746C114.708 93.5549 113.953 90.713 114.401 86.9644L117.738 86.7671C117.336 90.1375 118.017 92.6532 118.781 94.3117C119.163 95.142 119.567 95.7583 119.867 96.1593C120.017 96.3597 120.141 96.506 120.223 96.598C120.264 96.644 120.294 96.6764 120.313 96.6951L120.33 96.713L120.328 96.7111Z" fill="#272121"/>
<path fill-rule="evenodd" clip-rule="evenodd" d="M97.2427 84.1575C97.2427 84.1575 97.2419 84.1555 95.5275 85.2673C93.8132 86.3791 93.8123 86.377 93.8123 86.377L93.8114 86.3746L93.8094 86.3691L93.8044 86.3557L93.7906 86.3187C93.7799 86.2894 93.766 86.2511 93.7493 86.2038C93.7159 86.1092 93.6711 85.9789 93.6172 85.8137C93.5094 85.4835 93.3653 85.0139 93.2034 84.4132C92.8797 83.2121 92.4843 81.4843 92.1675 79.2972C91.5332 74.9183 91.2154 68.7072 92.4123 61.2206L96.1866 62.4487C95.1105 69.1798 95.4067 74.6845 95.9547 78.4678C96.2291 80.3617 96.5669 81.8262 96.8286 82.7973C96.9594 83.2827 97.0711 83.6441 97.1459 83.8734C97.1833 83.988 97.2115 84.0695 97.2282 84.1169L97.2445 84.1622L97.2427 84.1575Z" fill="url(#paint1_linear_11_56)"/>
<path d="M106.5 75.5938V91H103V74L106.5 75.5938Z" fill="#272121"/>
<g filter="url(#filter6_d_11_56)">
<ellipse cx="105.5" cy="66" rx="3.5" ry="3" fill="#272121"/>
</g>
<g filter="url(#filter7_d_11_56)">
<circle cx="97" cy="53" r="4" fill="#272121"/>
</g>
<g filter="url(#filter8_d_11_56)">
<circle cx="84" cy="62" r="3" fill="#272121"/>
</g>
<g filter="url(#filter9_d_11_56)">
<ellipse cx="78" cy="70.5" rx="3" ry="2.5" fill="#272121"/>
</g>
<path d="M77 74H79V78.5H77V74Z" fill="url(#paint2_linear_11_56)"/>
<defs>
<filter id="filter0_dd_11_56" x="27" y="0" width="216" height="216" filterUnits="userSpaceOnUse" color-interpolation-filters="sRGB">
<feFlood flood-opacity="0" result="BackgroundImageFix"/>
<feColorMatrix in="SourceAlpha" type="matrix" values="0 0 0 0 0 0 0 0 0 0 0 0 0 0 0 0 0 0 127 0" result="hardAlpha"/>
<feOffset dy="4"/>
<feGaussianBlur stdDeviation="2"/>
<feColorMatrix type="matrix" values="0 0 0 0 0 0 0 0 0 0 0 0 0 0 0 0 0 0 0.3 0"/>
<feBlend mode="normal" in2="BackgroundImageFix" result="effect1_dropShadow_11_56"/>
<feColorMatrix in="SourceAlpha" type="matrix" values="0 0 0 0 0 0 0 0 0 0 0 0 0 0 0 0 0 0 127 0" result="hardAlpha"/>
<feMorphology radius="6" operator="dilate" in="SourceAlpha" result="effect2_dropShadow_11_56"/>
<feOffset dy="8"/>
<feGaussianBlur stdDeviation="6"/>
<feColorMatrix type="matrix" values="0 0 0 0 0 0 0 0 0 0 0 0 0 0 0 0 0 0 0.15 0"/>
<feBlend mode="normal" in2="effect1_dropShadow_11_56" result="effect2_dropShadow_11_56"/>
<feBlend mode="normal" in="SourceGraphic" in2="effect2_dropShadow_11_56" result="shape"/>
</filter>
<filter id="filter1_d_11_56" x="56" y="25" width="158" height="174" filterUnits="userSpaceOnUse" color-interpolation-filters="sRGB">
<feFlood flood-opacity="0" result="BackgroundImageFix"/>
<feColorMatrix in="SourceAlpha" type="matrix" values="0 0 0 0 0 0 0 0 0 0 0 0 0 0 0 0 0 0 127 0" result="hardAlpha"/>
<feOffset dy="20"/>
<feGaussianBlur stdDeviation="2"/>
<feComposite in2="hardAlpha" operator="out"/>
<feColorMatrix type="matrix" values="0 0 0 0 0 0 0 0 0 0 0 0 0 0 0 0 0 0 0.25 0"/>
<feBlend mode="normal" in2="BackgroundImageFix" result="effect1_dropShadow_11_56"/>
<feBlend mode="normal" in="SourceGraphic" in2="effect1_dropShadow_11_56" result="shape"/>
</filter>
<filter id="filter2_dd_11_56" x="222" y="85" width="48" height="46" filterUnits="userSpaceOnUse" color-interpolation-filters="sRGB">
<feFlood flood-opacity="0" result="BackgroundImageFix"/>
<feColorMatrix in="SourceAlpha" type="matrix" values="0 0 0 0 0 0 0 0 0 0 0 0 0 0 0 0 0 0 127 0" result="hardAlpha"/>
<feOffset dy="4"/>
<feGaussianBlur stdDeviation="2"/>
<feColorMatrix type="matrix" values="0 0 0 0 0 0 0 0 0 0 0 0 0 0 0 0 0 0 0.3 0"/>
<feBlend mode="normal" in2="BackgroundImageFix" result="effect1_dropShadow_11_56"/>
<feColorMatrix in="SourceAlpha" type="matrix" values="0 0 0 0 0 0 0 0 0 0 0 0 0 0 0 0 0 0 127 0" result="hardAlpha"/>
<feMorphology radius="6" operator="dilate" in="SourceAlpha" result="effect2_dropShadow_11_56"/>
<feOffset dy="8"/>
<feGaussianBlur stdDeviation="6"/>
<feColorMatrix type="matrix" values="0 0 0 0 0 0 0 0 0 0 0 0 0 0 0 0 0 0 0.15 0"/>
<feBlend mode="normal" in2="effect1_dropShadow_11_56" result="effect2_dropShadow_11_56"/>
<feBlend mode="normal" in="SourceGraphic" in2="effect2_dropShadow_11_56" result="shape"/>
</filter>
<filter id="filter3_dd_11_56" x="114" y="191" width="48" height="46" filterUnits="userSpaceOnUse" color-interpolation-filters="sRGB">
<feFlood flood-opacity="0" result="BackgroundImageFix"/>
<feColorMatrix in="SourceAlpha" type="matrix" values="0 0 0 0 0 0 0 0 0 0 0 0 0 0 0 0 0 0 127 0" result="hardAlpha"/>
<feOffset dy="4"/>
<feGaussianBlur stdDeviation="2"/>
<feColorMatrix type="matrix" values="0 0 0 0 0 0 0 0 0 0 0 0 0 0 0 0 0 0 0.3 0"/>
<feBlend mode="normal" in2="BackgroundImageFix" result="effect1_dropShadow_11_56"/>
<feColorMatrix in="SourceAlpha" type="matrix" values="0 0 0 0 0 0 0 0 0 0 0 0 0 0 0 0 0 0 127 0" result="hardAlpha"/>
<feMorphology radius="6" operator="dilate" in="SourceAlpha" result="effect2_dropShadow_11_56"/>
<feOffset dy="8"/>
<feGaussianBlur stdDeviation="6"/>
<feColorMatrix type="matrix" values="0 0 0 0 0 0 0 0 0 0 0 0 0 0 0 0 0 0 0.15 0"/>
<feBlend mode="normal" in2="effect1_dropShadow_11_56" result="effect2_dropShadow_11_56"/>
<feBlend mode="normal" in="SourceGraphic" in2="effect2_dropShadow_11_56" result="shape"/>
</filter>
<filter id="filter4_dd_11_56" x="0" y="82" width="48" height="46" filterUnits="userSpaceOnUse" color-interpolation-filters="sRGB">
<feFlood flood-opacity="0" result="BackgroundImageFix"/>
<feColorMatrix in="SourceAlpha" type="matrix" values="0 0 0 0 0 0 0 0 0 0 0 0 0 0 0 0 0 0 127 0" result="hardAlpha"/>
<feOffset dy="4"/>
<feGaussianBlur stdDeviation="2"/>
<feColorMatrix type="matrix" values="0 0 0 0 0 0 0 0 0 0 0 0 0 0 0 0 0 0 0.3 0"/>
<feBlend mode="normal" in2="BackgroundImageFix" result="effect1_dropShadow_11_56"/>
<feColorMatrix in="SourceAlpha" type="matrix" values="0 0 0 0 0 0 0 0 0 0 0 0 0 0 0 0 0 0 127 0" result="hardAlpha"/>
<feMorphology radius="6" operator="dilate" in="SourceAlpha" result="effect2_dropShadow_11_56"/>
<feOffset dy="8"/>
<feGaussianBlur stdDeviation="6"/>
<feColorMatrix type="matrix" values="0 0 0 0 0 0 0 0 0 0 0 0 0 0 0 0 0 0 0.15 0"/>
<feBlend mode="normal" in2="effect1_dropShadow_11_56" result="effect2_dropShadow_11_56"/>
<feBlend mode="normal" in="SourceGraphic" in2="effect2_dropShadow_11_56" result="shape"/>
</filter>
<filter id="filter5_dd_11_56" x="95" y="64" width="42" height="42" filterUnits="userSpaceOnUse" color-interpolation-filters="sRGB">
<feFlood flood-opacity="0" result="BackgroundImageFix"/>
<feColorMatrix in="SourceAlpha" type="matrix" values="0 0 0 0 0 0 0 0 0 0 0 0 0 0 0 0 0 0 127 0" result="hardAlpha"/>
<feOffset dy="4"/>
<feGaussianBlur stdDeviation="2"/>
<feColorMatrix type="matrix" values="0 0 0 0 0 0 0 0 0 0 0 0 0 0 0 0 0 0 0.3 0"/>
<feBlend mode="normal" in2="BackgroundImageFix" result="effect1_dropShadow_11_56"/>
<feColorMatrix in="SourceAlpha" type="matrix" values="0 0 0 0 0 0 0 0 0 0 0 0 0 0 0 0 0 0 127 0" result="hardAlpha"/>
<feMorphology radius="6" operator="dilate" in="SourceAlpha" result="effect2_dropShadow_11_56"/>
<feOffset dy="8"/>
<feGaussianBlur stdDeviation="6"/>
<feColorMatrix type="matrix" values="0 0 0 0 0 0 0 0 0 0 0 0 0 0 0 0 0 0 0.15 0"/>
<feBlend mode="normal" in2="effect1_dropShadow_11_56" result="effect2_dropShadow_11_56"/>
<feBlend mode="normal" in="SourceGraphic" in2="effect2_dropShadow_11_56" result="shape"/>
</filter>
<filter id="filter6_d_11_56" x="98" y="63" width="15" height="14" filterUnits="userSpaceOnUse" color-interpolation-filters="sRGB">
<feFlood flood-opacity="0" result="BackgroundImageFix"/>
<feColorMatrix in="SourceAlpha" type="matrix" values="0 0 0 0 0 0 0 0 0 0 0 0 0 0 0 0 0 0 127 0" result="hardAlpha"/>
<feOffset dy="4"/>
<feGaussianBlur stdDeviation="2"/>
<feComposite in2="hardAlpha" operator="out"/>
<feColorMatrix type="matrix" values="0 0 0 0 0 0 0 0 0 0 0 0 0 0 0 0 0 0 0.25 0"/>
<feBlend mode="normal" in2="BackgroundImageFix" result="effect1_dropShadow_11_56"/>
<feBlend mode="normal" in="SourceGraphic" in2="effect1_dropShadow_11_56" result="shape"/>
</filter>
<filter id="filter7_d_11_56" x="89" y="49" width="16" height="16" filterUnits="userSpaceOnUse" color-interpolation-filters="sRGB">
<feFlood flood-opacity="0" result="BackgroundImageFix"/>
<feColorMatrix in="SourceAlpha" type="matrix" values="0 0 0 0 0 0 0 0 0 0 0 0 0 0 0 0 0 0 127 0" result="hardAlpha"/>
<feOffset dy="4"/>
<feGaussianBlur stdDeviation="2"/>
<feComposite in2="hardAlpha" operator="out"/>
<feColorMatrix type="matrix" values="0 0 0 0 0 0 0 0 0 0 0 0 0 0 0 0 0 0 0.25 0"/>
<feBlend mode="normal" in2="BackgroundImageFix" result="effect1_dropShadow_11_56"/>
<feBlend mode="normal" in="SourceGraphic" in2="effect1_dropShadow_11_56" result="shape"/>
</filter>
<filter id="filter8_d_11_56" x="77" y="59" width="14" height="14" filterUnits="userSpaceOnUse" color-interpolation-filters="sRGB">
<feFlood flood-opacity="0" result="BackgroundImageFix"/>
<feColorMatrix in="SourceAlpha" type="matrix" values="0 0 0 0 0 0 0 0 0 0 0 0 0 0 0 0 0 0 127 0" result="hardAlpha"/>
<feOffset dy="4"/>
<feGaussianBlur stdDeviation="2"/>
<feComposite in2="hardAlpha" operator="out"/>
<feColorMatrix type="matrix" values="0 0 0 0 0 0 0 0 0 0 0 0 0 0 0 0 0 0 0.25 0"/>
<feBlend mode="normal" in2="BackgroundImageFix" result="effect1_dropShadow_11_56"/>
<feBlend mode="normal" in="SourceGraphic" in2="effect1_dropShadow_11_56" result="shape"/>
</filter>
<filter id="filter9_d_11_56" x="71" y="68" width="14" height="13" filterUnits="userSpaceOnUse" color-interpolation-filters="sRGB">
<feFlood flood-opacity="0" result="BackgroundImageFix"/>
<feColorMatrix in="SourceAlpha" type="matrix" values="0 0 0 0 0 0 0 0 0 0 0 0 0 0 0 0 0 0 127 0" result="hardAlpha"/>
<feOffset dy="4"/>
<feGaussianBlur stdDeviation="2"/>
<feComposite in2="hardAlpha" operator="out"/>
<feColorMatrix type="matrix" values="0 0 0 0 0 0 0 0 0 0 0 0 0 0 0 0 0 0 0.25 0"/>
<feBlend mode="normal" in2="BackgroundImageFix" result="effect1_dropShadow_11_56"/>
<feBlend mode="normal" in="SourceGraphic" in2="effect1_dropShadow_11_56" result="shape"/>
</filter>
<linearGradient id="paint0_linear_11_56" x1="135" y1="25" x2="133.5" y2="178" gradientUnits="userSpaceOnUse">
<stop stop-color="#46D9E9"/>
<stop offset="0.465" stop-color="#62A3E6"/>
<stop offset="0.565" stop-color="#6F88E4"/>
<stop offset="0.755" stop-color="#7D6DE2"/>
<stop offset="0.895" stop-color="#9837DF"/>
<stop offset="1" stop-color="#B401DC"/>
</linearGradient>
<linearGradient id="paint1_linear_11_56" x1="93.8111" y1="61.1473" x2="95.1297" y2="86.3079" gradientUnits="userSpaceOnUse">
<stop stop-color="#736E6E"/>
<stop offset="0.925" stop-color="#272121"/>
</linearGradient>
<linearGradient id="paint2_linear_11_56" x1="78" y1="73.4375" x2="78" y2="77.9375" gradientUnits="userSpaceOnUse">
<stop stop-color="#999393"/>
<stop offset="1" stop-color="#201E1E"/>
</linearGradient>
</defs>
</svg>
